#
# generated by kHED
#
mtllib desk.mtl
# vertices:
v 0.000000 0.000000 0.000000
v 0.000000 10.000000 0.000000
v 0.000000 0.000000 16.000000
v 0.000000 10.000000 16.000000
v 32.000000 0.000000 0.000000
v 32.000000 10.000000 0.000000
v 32.000000 0.000000 16.000000
v 32.000000 10.000000 16.000000
v 12.000000 12.000000 3.000000
v 14.000000 12.000000 3.000000
v 14.000000 10.000000 3.000000
v 12.000000 10.000000 3.000000
v 8.000000 12.000000 3.000000
v 8.000000 12.000000 4.000000
v 8.000000 18.000000 3.000000
v 8.000000 18.000000 4.000000
v 18.000000 12.000000 3.000000
v 18.000000 12.000000 4.000000
v 18.000000 18.000000 3.000000
v 18.000000 18.000000 4.000000

# texture coords:
vt 0.000000 1.000000 0.0
vt 0.000000 0.500000 0.0
vt 1.000000 1.000000 0.0
vt 0.000000 0.500000 0.0
vt 1.000000 0.500000 0.0
vt 1.000000 1.000000 0.0
vt 0.500000 0.000000 0.0
vt 0.000000 0.500000 0.0
vt 0.500000 0.500000 0.0
vt 0.500000 0.000000 0.0
vt 0.000000 0.000000 0.0
vt 0.000000 0.500000 0.0
vt 0.500000 0.000000 0.0
vt 0.500000 0.500000 0.0
vt 0.000000 0.000000 0.0
vt 0.500000 0.500000 0.0
vt 0.000000 0.500000 0.0
vt 0.000000 0.000000 0.0
vt 0.500000 0.000000 0.0
vt 1.000000 0.500000 0.0
vt 1.000000 0.000000 0.0
vt 0.500000 0.000000 0.0
vt 0.500000 0.500000 0.0
vt 1.000000 0.500000 0.0
vt 0.500000 0.000000 0.0
vt 1.000000 0.000000 0.0
vt 0.500000 0.500000 0.0
vt 1.000000 0.000000 0.0
vt 1.000000 0.500000 0.0
vt 0.500000 0.500000 0.0
vt 0.573437 0.968750 0.0
vt 0.573437 0.812500 0.0
vt 0.804688 0.812500 0.0
vt 0.573437 0.968750 0.0
vt 0.804688 0.812500 0.0
vt 0.804688 0.968750 0.0
vt 0.500000 0.625000 0.0
vt 0.500000 1.000000 0.0
vt 1.000000 1.000000 0.0
vt 0.500000 0.625000 0.0
vt 1.000000 1.000000 0.0
vt 1.000000 0.625000 0.0
vt 0.062500 0.187500 0.0
vt 0.562500 0.187500 0.0
vt 0.062500 0.562500 0.0
vt 0.062500 0.562500 0.0
vt 0.562500 0.187500 0.0
vt 0.562500 0.562500 0.0
vt 0.875000 0.234375 0.0
vt 0.718750 0.234375 0.0
vt 0.718750 0.476563 0.0
vt 0.875000 0.234375 0.0
vt 0.718750 0.476563 0.0
vt 0.875000 0.476563 0.0
vt 0.875000 0.234375 0.0
vt 0.875000 0.476563 0.0
vt 0.718750 0.234375 0.0
vt 0.718750 0.234375 0.0
vt 0.875000 0.476563 0.0
vt 0.718750 0.476563 0.0
vt 0.914063 0.953125 0.0
vt 0.914062 0.820313 0.0
vt 0.585938 0.820313 0.0
vt 0.914063 0.953125 0.0
vt 0.585938 0.820313 0.0
vt 0.585938 0.953125 0.0
vt 0.882813 0.539063 0.0
vt 0.671875 0.539063 0.0
vt 0.882812 0.234375 0.0
vt 0.882812 0.234375 0.0
vt 0.671875 0.539063 0.0
vt 0.671875 0.234375 0.0

# normals:
vn 0.000000 1.000000 0.000000
vn 0.000000 1.000000 0.000000
vn 0.000000 1.000000 0.000000
vn 0.000000 1.000000 0.000000
vn 0.000000 1.000000 0.000000
vn 0.000000 1.000000 0.000000
vn -1.000000 0.000000 0.000000
vn -1.000000 0.000000 0.000000
vn -1.000000 0.000000 0.000000
vn -1.000000 0.000000 0.000000
vn -1.000000 0.000000 0.000000
vn -1.000000 0.000000 0.000000
vn 1.000000 0.000000 0.000000
vn 1.000000 0.000000 0.000000
vn 1.000000 0.000000 0.000000
vn 1.000000 0.000000 0.000000
vn 1.000000 0.000000 0.000000
vn 1.000000 0.000000 0.000000
vn 0.000000 0.000000 -1.000000
vn 0.000000 0.000000 -1.000000
vn 0.000000 0.000000 -1.000000
vn 0.000000 0.000000 -1.000000
vn 0.000000 0.000000 -1.000000
vn 0.000000 0.000000 -1.000000
vn 0.000000 0.000000 1.000000
vn 0.000000 0.000000 1.000000
vn 0.000000 0.000000 1.000000
vn 0.000000 0.000000 1.000000
vn 0.000000 0.000000 1.000000
vn 0.000000 0.000000 1.000000
vn 0.000000 0.000000 1.000000
vn 0.000000 0.000000 1.000000
vn 0.000000 0.000000 1.000000
vn 0.000000 0.000000 1.000000
vn 0.000000 0.000000 1.000000
vn 0.000000 0.000000 1.000000
vn 0.000000 0.000000 -1.000000
vn 0.000000 0.000000 -1.000000
vn 0.000000 0.000000 -1.000000
vn 0.000000 0.000000 -1.000000
vn 0.000000 0.000000 -1.000000
vn 0.000000 0.000000 -1.000000
vn 0.000000 0.000000 1.000000
vn 0.000000 0.000000 1.000000
vn 0.000000 0.000000 1.000000
vn 0.000000 0.000000 1.000000
vn 0.000000 0.000000 1.000000
vn 0.000000 0.000000 1.000000
vn -1.000000 0.000000 0.000000
vn -1.000000 0.000000 0.000000
vn -1.000000 0.000000 0.000000
vn -1.000000 0.000000 0.000000
vn -1.000000 0.000000 0.000000
vn -1.000000 0.000000 0.000000
vn 1.000000 0.000000 0.000000
vn 1.000000 0.000000 0.000000
vn 1.000000 0.000000 0.000000
vn 1.000000 0.000000 0.000000
vn 1.000000 0.000000 0.000000
vn 1.000000 0.000000 0.000000
vn 0.000000 -1.000000 0.000000
vn 0.000000 -1.000000 0.000000
vn 0.000000 -1.000000 0.000000
vn 0.000000 -1.000000 0.000000
vn 0.000000 -1.000000 0.000000
vn 0.000000 -1.000000 0.000000
vn 0.000000 1.000000 0.000000
vn 0.000000 1.000000 0.000000
vn 0.000000 1.000000 0.000000
vn 0.000000 1.000000 0.000000
vn 0.000000 1.000000 0.000000
vn 0.000000 1.000000 0.000000

# triangles:
g Box
usemtl desk
s 0
f 2/1/1 4/2/2 6/3/3
f 4/4/4 8/5/5 6/6/6
s 1
f 1/7/7 4/8/8 2/9/9
f 1/10/10 3/11/11 4/12/12
f 5/13/13 6/14/14 7/15/15
f 6/16/16 8/17/17 7/18/18
s 2
f 1/19/19 6/20/20 5/21/21
f 1/22/22 2/23/23 6/24/24
f 3/25/25 7/26/26 4/27/27
f 7/28/28 8/29/29 4/30/30
g monitor
usemtl monitor
s 3
f 9/31/31 12/32/32 11/33/33
f 9/34/34 11/35/35 10/36/36
s 4
f 13/37/37 15/38/38 19/39/39
f 13/40/40 19/41/41 17/42/42
f 14/43/43 18/44/44 16/45/45
f 16/46/46 18/47/47 20/48/48
s 5
f 13/49/49 14/50/50 16/51/51
f 13/52/52 16/53/53 15/54/54
f 17/55/55 19/56/56 18/57/57
f 18/58/58 19/59/59 20/60/60
s 6
f 13/61/61 17/62/62 18/63/63
f 13/64/64 18/65/65 14/66/66
f 15/67/67 16/68/68 19/69/69
f 19/70/70 16/71/71 20/72/72

g