#
# generated by kHED
#
mtllib fire_extinguisher.mtl
# vertices:
v 0.000000 32.000000 4.000000
v 16.000000 32.000000 4.000000
v 0.000000 0.000000 4.000000
v 16.000000 0.000000 4.000000

# texture coords:
vt 0.000000 1.000000 0.0
vt 1.000000 0.000000 0.0
vt 1.000000 1.000000 0.0
vt 0.000000 1.000000 0.0
vt 0.000000 0.000000 0.0
vt 1.000000 0.000000 0.0

# normals:
vn 0.000000 0.000000 1.000000
vn 0.000000 0.000000 1.000000
vn 0.000000 0.000000 1.000000
vn 0.000000 0.000000 1.000000
vn 0.000000 0.000000 1.000000
vn 0.000000 0.000000 1.000000

# triangles:
g Plane 1
usemtl Material1
s 0
f 1/1/1 4/2/2 2/3/3
f 1/4/4 3/5/5 4/6/6

g