#
# generated by kHED
#
mtllib monitor.mtl
# vertices:
v -1.000000 2.000000 -1.000000
v 1.000000 2.000000 -1.000000
v 1.000000 0.000000 -1.000000
v -1.000000 0.000000 -1.000000
v -5.000000 2.000000 -1.000000
v -5.000000 2.000000 0.000000
v -5.000000 8.000000 -1.000000
v -5.000000 8.000000 0.000000
v 5.000000 2.000000 -1.000000
v 5.000000 2.000000 0.000000
v 5.000000 8.000000 -1.000000
v 5.000000 8.000000 0.000000
v -3.000000 0.000000 2.000000
v 3.000000 0.000000 2.000000
v -3.000000 0.000000 -2.000000
v 3.000000 0.000000 -2.000000

# texture coords:
vt 0.573437 0.968750 0.0
vt 0.573437 0.812500 0.0
vt 0.804688 0.812500 0.0
vt 0.573437 0.968750 0.0
vt 0.804688 0.812500 0.0
vt 0.804688 0.968750 0.0
vt 0.500000 0.625000 0.0
vt 0.500000 1.000000 0.0
vt 1.000000 1.000000 0.0
vt 0.500000 0.625000 0.0
vt 1.000000 1.000000 0.0
vt 1.000000 0.625000 0.0
vt 0.062500 0.187500 0.0
vt 0.562500 0.187500 0.0
vt 0.062500 0.562500 0.0
vt 0.062500 0.562500 0.0
vt 0.562500 0.187500 0.0
vt 0.562500 0.562500 0.0
vt 0.875000 0.234375 0.0
vt 0.718750 0.234375 0.0
vt 0.718750 0.476563 0.0
vt 0.875000 0.234375 0.0
vt 0.718750 0.476563 0.0
vt 0.875000 0.476563 0.0
vt 0.875000 0.234375 0.0
vt 0.875000 0.476563 0.0
vt 0.718750 0.234375 0.0
vt 0.718750 0.234375 0.0
vt 0.875000 0.476563 0.0
vt 0.718750 0.476563 0.0
vt 0.914063 0.953125 0.0
vt 0.914062 0.820313 0.0
vt 0.585938 0.820313 0.0
vt 0.914063 0.953125 0.0
vt 0.585938 0.820313 0.0
vt 0.585938 0.953125 0.0
vt 0.882813 0.539063 0.0
vt 0.671875 0.539063 0.0
vt 0.882812 0.234375 0.0
vt 0.882812 0.234375 0.0
vt 0.671875 0.539063 0.0
vt 0.671875 0.234375 0.0
vt 0.062500 0.937500 0.0
vt 0.437500 0.937500 0.0
vt 0.437500 0.687500 0.0
vt 0.062500 0.937500 0.0
vt 0.437500 0.687500 0.0
vt 0.062500 0.687500 0.0

# normals:
vn 0.000000 0.000000 1.000000
vn 0.000000 0.000000 1.000000
vn 0.000000 0.000000 1.000000
vn 0.000000 0.000000 1.000000
vn 0.000000 0.000000 1.000000
vn 0.000000 0.000000 1.000000
vn 0.000000 0.000000 -1.000000
vn 0.000000 0.000000 -1.000000
vn 0.000000 0.000000 -1.000000
vn 0.000000 0.000000 -1.000000
vn 0.000000 0.000000 -1.000000
vn 0.000000 0.000000 -1.000000
vn 0.000000 0.000000 1.000000
vn 0.000000 0.000000 1.000000
vn 0.000000 0.000000 1.000000
vn 0.000000 0.000000 1.000000
vn 0.000000 0.000000 1.000000
vn 0.000000 0.000000 1.000000
vn -1.000000 0.000000 0.000000
vn -1.000000 0.000000 0.000000
vn -1.000000 0.000000 0.000000
vn -1.000000 0.000000 0.000000
vn -1.000000 0.000000 0.000000
vn -1.000000 0.000000 0.000000
vn 1.000000 0.000000 0.000000
vn 1.000000 0.000000 0.000000
vn 1.000000 0.000000 0.000000
vn 1.000000 0.000000 0.000000
vn 1.000000 0.000000 0.000000
vn 1.000000 0.000000 0.000000
vn 0.000000 -1.000000 0.000000
vn 0.000000 -1.000000 0.000000
vn 0.000000 -1.000000 0.000000
vn 0.000000 -1.000000 0.000000
vn 0.000000 -1.000000 0.000000
vn 0.000000 -1.000000 0.000000
vn 0.000000 1.000000 0.000000
vn 0.000000 1.000000 0.000000
vn 0.000000 1.000000 0.000000
vn 0.000000 1.000000 0.000000
vn 0.000000 1.000000 0.000000
vn 0.000000 1.000000 0.000000
vn 0.000000 1.000000 0.000000
vn 0.000000 1.000000 0.000000
vn 0.000000 1.000000 0.000000
vn 0.000000 1.000000 0.000000
vn 0.000000 1.000000 0.000000
vn 0.000000 1.000000 0.000000

# triangles:
g Box 2
usemtl monitor
s 0
f 1/1/1 4/2/2 3/3/3
f 1/4/4 3/5/5 2/6/6
g Box 3
usemtl monitor
s 1
f 5/7/7 7/8/8 11/9/9
f 5/10/10 11/11/11 9/12/12
f 6/13/13 10/14/14 8/15/15
f 8/16/16 10/17/17 12/18/18
s 2
f 5/19/19 6/20/20 8/21/21
f 5/22/22 8/23/23 7/24/24
f 9/25/25 11/26/26 10/27/27
f 10/28/28 11/29/29 12/30/30
s 3
f 5/31/31 9/32/32 10/33/33
f 5/34/34 10/35/35 6/36/36
f 7/37/37 8/38/38 11/39/39
f 11/40/40 8/41/41 12/42/42
g Plane 2
usemtl monitor
s 4
f 13/43/43 14/44/44 16/45/45
f 13/46/46 16/47/47 15/48/48

g